<?xml version="1.0" encoding="UTF-8"?>
<svg id="b" data-name="Layer 2" xmlns="http://www.w3.org/2000/svg" viewBox="0 0 49.5 49.5">
  <g id="c" data-name="BACK">
    <path d="M26.11,9.57c-.15.04-.3.07-.43.09-.13.02-.26.03-.39.03-.12,0-.25,0-.37,0s-.25,0-.38,0c-.06,0-.1.03-.13.07-.03.04-.04.09-.05.14s0,.1.03.14c.03.04.07.07.13.07.11,0,.26.01.43.01.17,0,.36,0,.56,0,.2,0,.41,0,.62-.01.22,0,.42-.01.61-.02.19,0,.36-.01.5-.02.15,0,.26-.01.34-.02.06,0,.1.03.1.09,0,.55,0,1.11.03,1.66,0,.06-.03.09-.09.09h-5.79c-.06,0-.09-.03-.09-.1,0-.07.01-.16.01-.26,0-.1,0-.18,0-.24.01-.31.02-.61.02-.9v-.9s0-.08,0-.15,0-.16,0-.25,0-.18,0-.28c0-.09,0-.16,0-.21s.02-.08.07-.1c.08-.01.2-.03.38-.05.17-.02.39-.05.63-.08.25-.03.53-.05.83-.08.31-.02.63-.04.98-.05.16,0,.27-.03.34-.07.07-.04.1-.12.1-.24,0-.04-.01-.08-.04-.12-.03-.03-.06-.06-.1-.08-.04-.02-.08-.04-.12-.05s-.08-.02-.11-.02c-.19-.02-.39-.03-.6-.04-.21,0-.42-.01-.62-.01-.37,0-.7,0-1.01.02-.3.02-.52.03-.64.04-.03,0-.05,0-.06-.02-.02-.02-.03-.04-.03-.07v-2.29c0-.06.03-.09.09-.09h3.3c.12,0,.26,0,.42,0,.16,0,.33.02.5.04.17.02.33.06.5.1.17.04.31.1.44.18.06.03.13.08.21.16.08.07.16.17.23.29.07.12.14.26.19.42s.08.36.08.57v.71c0,.5-.13.89-.41,1.19s-.68.52-1.22.67ZM24.75,0C11.08,0,0,11.08,0,24.75s11.08,24.75,24.75,24.75,24.75-11.08,24.75-24.75S38.42,0,24.75,0ZM20.86,47.3c.07-2.57-.07-7.95-.74-9.96l-2.38-3.68c-.56-.87-.89-1.96-.89-2.97,0-.82.62-1.65,1.46-1.64,2.31.01,6.05.67,5.81,1.99-.19,1.06-3.51.85-5.66.38-.16-.04-.51.38-.4.47.87.73,4.98,1.07,6.63-.07.76.63,1.68.45,2.44-.31.14.53.45,1.2.96,1.33.82.21,1.51-.11,2.33-.47-.69,1.9-1.58,3.59-2.01,5.5-.45,2.01-.47,7.5-.15,9.49-1.14.18-2.31.27-3.5.27-1.33,0-2.63-.12-3.89-.34ZM19.19,18.67c1.73-.49,2.85,4.61,3.34,7.11.03.16.34.52.47.44.13-.08.34-.45.35-.61.02-2.22.03-4.36.25-6.54.05-.54.46-1.61.94-1.62.6,0,.82.97.93,1.51.14,2.47.25,5-.38,7.42l-.85,3.29c-1.23-.72-2.75-1.07-4.09-1.23.43-2.77-2.27-9.38-.97-9.75ZM28.77,27.84c-.35,1.45-2.57,3.84-3.21,3.67-1.04-.29-.49-3.75.56-4.97.73-.85,2.91.21,2.65,1.3ZM29.97,28.04c.66-.31,1.84.91,1.53,1.63-1.14,2.67-3.79,3.01-3.54,1.95.3-1.31,1.02-2.62,2.01-3.58ZM28.8,47.27c.22-2.05-.2-7.25.34-9.29.68-2.56,1.82-4.86,2.83-7.28.4-.97.52-1.78-.23-2.64-.5-.58-1.23-1.04-2.21-.67-.47-1.38-1.84-2.13-3.42-1.78.27-3.09.76-9.23-1.63-8.99-1.72.18-1.79,3.68-1.83,6.12-.62-2.31-1.77-5.4-3.72-4.78-2.22.71.95,7.31.44,10.33-1.1-.04-1.89.04-2.55.61-.42.36-.8,1.36-.74,2.05.23,2.91,2.48,4.84,3.34,6.8.91,2.08.62,7.3.71,9.41C9.7,45.03,1.86,35.8,1.86,24.75,1.86,12.11,12.11,1.86,24.75,1.86s22.88,10.25,22.88,22.88c0,11.26-8.13,20.61-18.84,22.52Z"/>
  </g>
</svg>