<?xml version="1.0" encoding="UTF-8"?>
<svg id="b" data-name="Layer 2" xmlns="http://www.w3.org/2000/svg" viewBox="0 0 49.5 49.5">
  <g id="c" data-name="BACK">
    <path d="M24.75,0C11.08,0,0,11.08,0,24.75s11.08,24.75,24.75,24.75,24.75-11.08,24.75-24.75S38.42,0,24.75,0ZM9.35,38.43c-.34-1.66-1.11-3.12-1.7-4.73.43.13,1.1.29,1.41.17.95-.35.92-2.27.31-3.93-1-2.69-3.26-9.88-2.23-10.5.17-.1.71.16.81.33l1.34,2.36,1.99,4.81c.07.17.58.4.67.25.07-.12.17-.49.14-.63-.59-2.43-1.13-4.99-1.26-7.49-.04-.66.19-1.27.61-1.73,1.04.89,1.33,2.1,1.79,3.36l1.24,5.52.5.33c.11.07.35-.41.34-.55l-.14-3.74c-.08-2.12.08-4.38,1.23-4.07.26.07.73.55.74.84l.26,4.34c.11,1.75-.11,3.63.44,5.29.25.75,1.62.37,2.03-.09l2.52-2.86c.16-.18.79-.34.91-.15.69,1.16-1.07,3.21-1.92,4.71l-3.66,6.47c-.96,2.08-.89,6.78-.72,9.53-2.64-.95-5.05-2.37-7.14-4.17-.06-1.04-.26-2.47-.51-3.69ZM6.14,30.05c-.17-.33.22-1.02.42-1.28s1.05-.57,1.29-.26c1.16,1.47,1.55,4.36.86,4.7-.51.25-1.85-1.74-2.57-3.16ZM31.33,24.49l-.94-4.95c-.05-.25.17-.73.34-.84.63-.4,1.87,1.12,2.19,2.37l1.21,4.72c.04.14.32.41.46.42.14.01.33-.37.33-.54l.28-6.71c.02-.6.39-1.36,1.05-1.6.32.25.71,1.1.7,1.51l-.25,7.01c0,.22.11.64.17.82.05.13.68.03.74-.12l1.95-4.63c.47-1.12.97-1.96,2.1-2.49-.08,1.71-.45,3.05-.77,4.63l-.77,3.81c-.04.2.28.72.44.7.12-.02.49-.15.57-.24l1.43-1.77c.79-.98,1.38-1.7,2.52-2.53.17.74.08,1.3-.24,1.88l-1.74,3.22-3.35,8.09-.51,5.22c-1.96,1.61-4.2,2.9-6.63,3.79.23-2.69.11-7.19-.72-9.48-.9-1.49-2.18-2.84-2.71-4.48l-1.17-3.64c-.56-1.73-.84-3.94,0-4.12.17-.04.61.22.69.4l1.6,3.5c.13.29.52.67.76.64,1.2-.19.62-2.8.28-4.57ZM40.08,41.74c.08-1.39.17-3.07.49-4.21.82-2.87,2.03-5.56,3.3-8.22.92-1.93,3.1-4.97,1.58-5.75-.3-.15-1.04-.1-1.31.21l-3.2,3.61,1.5-7.07c.07-.33-.15-1.05-.37-1.27-.63-.64-2.15.38-2.7,1.61l-1.8,4.05.16-3.36c.1-2.08-.09-4.63-1.5-4.68-1.91-.07-1.99,3.57-2.04,5.98-.7-2.55-2.03-5.52-3.88-4.56-.39.2-.77,1.03-.67,1.6l.78,4.24c.25,1.37.59,2.64.54,4.11l-1.7-3.56c-.2-.41-1.06-.75-1.45-.66-1.28.32-1.31,2.49-.73,4.28l1.57,4.89c.49,1.52,1.8,2.64,2.49,4.1,1.24,2.62.66,7.77.8,9.39-2.26.75-4.68,1.16-7.19,1.16s-4.83-.39-7.05-1.11c-.05-2.32-.42-7.54.7-9.52l3.59-6.3c.96-1.69,3.44-4.83,1.59-5.84-.44-.24-1.37-.09-1.71.31l-2.35,2.69c-.19.22-.74.43-1.14.46l-.22-4.13c-.14-2.5.34-6.49-1.73-6.71-1.96-.2-2.06,2.38-2.05,4.7-.65-2.36-1.57-5.89-3.27-5.43-1.54.41-.95,3.87-.6,6.24-.84-1.93-2.22-5.01-3.67-4.26-1.62.85.12,5.99.88,8.84-.77.05-1.46.37-1.89.92-.41.54-.61,1.32-.35,1.98,1.06,2.67,2.28,5.1,3.07,7.88.31,1.12.4,2.14.48,3-4.41-4.17-7.17-10.07-7.17-16.62C1.86,12.11,12.11,1.86,24.75,1.86s22.88,10.25,22.88,22.88c0,6.74-2.92,12.8-7.55,16.99ZM25.86,5.24c.34,0,.63.07.87.2.24.13.43.3.58.52.15.22.26.47.32.75.07.28.1.57.1.88v2.44c0,.2-.02.38-.06.53-.04.16-.09.3-.15.42-.06.12-.12.22-.18.31s-.12.15-.17.21c-.02.02-.06.05-.12.09-.06.04-.14.09-.23.14-.1.05-.21.09-.33.13s-.26.06-.41.06h-4.21c-.06,0-.1-.03-.1-.09v-1.62c0-.06.03-.09.1-.09h.33c.15,0,.31,0,.5,0s.38,0,.58,0,.39,0,.57,0c.06,0,.13,0,.21,0s.18,0,.27-.01c.1,0,.19-.01.28-.02.09,0,.16,0,.22,0,.06,0,.13-.03.21-.07.07-.04.11-.12.11-.23,0-.1-.04-.17-.13-.19s-.17-.04-.26-.06c-.05,0-.16,0-.33,0-.17,0-.37,0-.58,0-.22,0-.43-.01-.65-.03-.22-.02-.4-.06-.54-.11-.07-.03-.15-.09-.25-.16s-.19-.17-.29-.28c-.09-.11-.17-.24-.23-.38-.06-.14-.1-.28-.1-.43v-1.01c0-.22.04-.45.1-.67s.16-.43.29-.61.29-.33.47-.45.41-.17.66-.17h2.57ZM24.84,8.49c.08,0,.15-.02.19-.06.04-.04.08-.1.09-.17.02-.07.03-.16.03-.27,0-.11,0-.22,0-.35,0-.29-.01-.5-.04-.63-.03-.14-.12-.21-.27-.21-.09,0-.16.01-.21.04s-.08.07-.1.13c-.02.06-.03.14-.03.24,0,.1,0,.22,0,.36,0,.28.02.5.05.67.03.17.13.25.29.25Z"/>
  </g>
</svg>