<?xml version="1.0" encoding="UTF-8"?>
<svg id="b" data-name="Layer 2" xmlns="http://www.w3.org/2000/svg" viewBox="0 0 49.5 49.5">
  <g id="c" data-name="BACK">
    <path d="M24.75,0C11.08,0,0,11.08,0,24.75c0,7.87,3.68,14.88,9.41,19.42,0,0,.01,0,.02.01,4.21,3.33,9.53,5.32,15.32,5.32,13.67,0,24.75-11.08,24.75-24.75S38.42,0,24.75,0ZM9.73,37.41l-3.5-8.37-1.93-3.87c-.08-.15-.01-.57.01-.72.03-.16.7.07.83.22l3.12,3.75c.17.2.55.38.74.33.18-.05.44-.6.4-.82l-1.1-5.04-.43-3.23c.78.35,1.29.78,1.56,1.42l2.17,5.07c.19.45.56.92,1.12.77l-.04-3.09c-.03-2.03-.56-6.44.72-6.27.81.11,1.13,2.46,1.14,4.2l.03,4.11c0,.17.42.67.52.56.09-.1.29-.38.32-.52l1.34-5.05c.33-1.26,1.75-2.47,2.15-1.93.1.14.27.58.24.77l-.85,4.56c-.36,1.92-1.1,5.17.3,4.99.24-.03.54-.4.68-.71l1.61-3.46c.07-.16.45-.38.59-.38.62-.02.8,1.84.27,3.43l-1.66,5-2.56,4.09c-.6,2.04-.79,6.67-.62,9.05-2.57-.94-4.92-2.33-6.97-4.07l-.2-4.78ZM31.95,37.3c-.64-1.64-2.45-3.05-3.3-6.24l-1.26-4.76c-.14-.54.17-1.36.62-1.65.39.26.87.82,1.05,1.23l1.26,2.89c.08.19.49.49.69.48.67-.03.94-1.54.63-2.99l-1.12-5.17c-.13-.6-.12-1.62.03-2.15.86-.36,1.49.43,1.83,1.15,1.46,3.07,1.4,6.27,2.19,6.31.18,0,.32-.52.34-.81l.27-6.44c.02-.52.42-1.41.94-1.58.3-.09.79.77.78,1.09l-.24,7.46c0,.27.3.92.54.86.2-.05.51-.4.6-.62l2.31-5.36c.28-.64.84-1.1,1.54-1.31l-.51,3.42-1.04,4.79c-.05.23.25.88.44.86.2-.02.56-.21.73-.41l3.17-3.74c.11-.13.54-.24.66-.19.12.05.18.54.11.68l-1.99,3.98-3.51,8.38-.16,4.69c-2.05,1.74-4.41,3.14-6.98,4.08.11-2.4.12-7.01-.64-8.95ZM40.28,41.55c-.04-1.35-.08-2.95.31-3.93l3.27-8.09c.63-1.56,3.16-4.7,1.69-5.75-.29-.21-1.17-.12-1.43.16l-3.12,3.51,1.31-6.14c.11-.5.11-1.51-.06-1.96-2.26-1.39-3.54,2.95-4.68,5.57l.16-3.58c.09-2.07-.13-4.52-1.53-4.55-1.88-.04-1.98,3.66-2.04,6.05-.61-2.53-2.06-5.54-3.78-4.65-.41.21-.86.95-.77,1.46l.67,3.94c.26,1.54.72,2.92.69,4.57l-1.92-3.72c-.15-.3-.98-.53-1.3-.45-1.2.29-1.29,2.45-.75,4.17l1.56,4.89c.5,1.57,1.72,2.83,2.61,4.25.71,2.05.88,7.01.65,9.23-2.23.72-4.61,1.12-7.08,1.12s-4.83-.39-7.06-1.11c-.14-2.16-.04-6.9.45-8.91l1.75-2.64c.81-1.21,1.35-2.49,1.73-3.89l1.19-4.41c.28-1.03-.31-2.72-1.33-2.72-.33,0-1.04.33-1.19.64l-1.75,3.63c-.08-1.47.35-2.85.61-4.35l.73-4.34c.08-.5-.44-1.23-.85-1.38-1.78-.67-2.96,2.09-3.65,4.32-.23-2.46-.29-5.88-2.16-5.67-2.07.23-1.38,5.45-1.23,8.29-.76-1.93-1.42-3.67-2.54-5.27-.48-.68-1.69-1.23-2.2-.38-.29.47-.1,1.67.03,2.27l1.28,5.85-3.11-3.57c-.3-.34-1.14-.42-1.47-.25-1.47.74.73,3.87,1.55,5.58,1.3,2.72,2.53,5.44,3.4,8.38.29.96.3,2.51.3,3.86-4.53-4.18-7.37-10.16-7.37-16.81C1.86,12.11,12.11,1.86,24.75,1.86s22.88,10.25,22.88,22.88c0,6.64-2.83,12.62-7.35,16.8ZM23.33,5.33c0,.06,0,.14,0,.23,0,.1,0,.2,0,.31,0,.11,0,.22,0,.33,0,.11,0,.21,0,.28,0,.28-.01.55-.01.82s0,.53,0,.81,0,.55,0,.83c0,.28.02.58.03.9,0,.14.01.31.01.51,0,.2,0,.39,0,.58,0,.19,0,.37,0,.53,0,.17,0,.29,0,.36,0,.06-.03.09-.09.09h-2.45c-.06,0-.08-.03-.08-.1,0-.06,0-.13,0-.23,0-.1,0-.2.01-.3,0-.11.01-.21.01-.31,0-.1,0-.17.01-.22.01-.15.02-.32.03-.52,0-.2,0-.39,0-.57v-.78s0-.06,0-.12c0-.06,0-.13,0-.2,0-.07-.02-.14-.05-.2-.03-.07-.06-.12-.12-.16-.04-.03-.1-.04-.18-.06s-.15-.02-.23-.02-.16,0-.23,0c-.07,0-.13.01-.19.02-.06,0-.09-.03-.11-.09,0-.07,0-.17,0-.32,0-.14,0-.3,0-.47s0-.36,0-.56c0-.2.01-.4.02-.6,0-.04.02-.07.06-.08.15-.05.29-.12.42-.19s.23-.15.32-.23c.09-.08.16-.15.22-.21.06-.06.1-.11.12-.14.02-.03.04-.04.07-.04h2.32c.06,0,.09.03.09.1ZM29.81,8.18v.96c0,.13,0,.29-.02.47s-.04.36-.08.54c-.04.18-.09.36-.16.53-.07.17-.16.32-.28.46-.13.15-.26.28-.39.38s-.26.18-.41.24-.31.1-.49.12-.38.03-.62.03h-1.03c-.39,0-.74-.06-1.05-.17-.31-.11-.6-.32-.87-.63-.11-.13-.21-.29-.27-.48-.07-.18-.12-.37-.15-.57-.03-.19-.05-.38-.06-.56,0-.18-.01-.34-.01-.47v-.89c0-.15,0-.32,0-.51,0-.19.02-.38.05-.58.03-.19.08-.38.14-.56s.16-.33.28-.47c.11-.12.22-.23.34-.32.12-.09.26-.18.41-.24.15-.07.32-.12.5-.15.18-.04.39-.05.63-.05h1.16c.22,0,.42.02.59.06.17.04.32.09.45.15.13.06.25.13.36.21.1.08.21.17.3.27.15.14.26.31.35.52.09.2.16.41.21.62.05.21.08.41.09.61.01.2.02.36.02.5ZM27.25,8.35c0-.13,0-.27-.02-.4-.01-.13-.03-.25-.07-.36-.03-.11-.08-.2-.13-.27-.06-.07-.13-.1-.22-.1s-.17.03-.23.1-.11.15-.15.25c-.04.11-.07.22-.08.36-.02.13-.02.27-.02.41,0,.11,0,.2,0,.29,0,.08,0,.17,0,.26,0,.27.04.51.13.71.09.2.2.3.34.3.09,0,.16-.04.22-.13.06-.09.1-.19.13-.31.03-.12.05-.23.07-.34.01-.11.02-.19.02-.22v-.52Z"/>
  </g>
</svg>