<?xml version="1.0" encoding="UTF-8"?>
<svg id="b" data-name="Layer 2" xmlns="http://www.w3.org/2000/svg" viewBox="0 0 49.5 49.5">
  <g id="c" data-name="BACK">
    <path d="M27.69,8.18v.96c0,.13,0,.29-.02.47s-.04.36-.08.54c-.04.18-.09.36-.16.53-.07.17-.16.32-.28.46-.13.15-.26.28-.39.38s-.26.18-.41.24-.31.1-.49.12-.38.03-.62.03h-1.03c-.39,0-.74-.06-1.05-.17-.31-.11-.6-.32-.87-.63-.11-.13-.21-.29-.27-.48-.07-.18-.12-.37-.15-.57-.03-.19-.05-.38-.06-.56,0-.18-.01-.34-.01-.47v-.89c0-.15,0-.32,0-.51,0-.19.02-.38.05-.58.03-.19.08-.38.14-.56s.16-.33.28-.47c.11-.12.22-.23.34-.32.12-.09.26-.18.41-.24.15-.07.32-.12.5-.15.18-.04.39-.05.63-.05h1.16c.22,0,.42.02.59.06.17.04.32.09.45.15.13.06.25.13.36.21.1.08.21.17.3.27.15.14.26.31.35.52.09.2.16.41.21.62.05.21.08.41.09.61.01.2.02.36.02.5ZM25.14,8.35c0-.13,0-.27-.02-.4-.01-.13-.03-.25-.07-.36-.03-.11-.08-.2-.13-.27-.06-.07-.13-.1-.22-.1s-.17.03-.23.1-.11.15-.15.25c-.04.11-.07.22-.08.36-.02.13-.02.27-.02.41,0,.11,0,.2,0,.29,0,.08,0,.17,0,.26,0,.27.04.51.13.71.09.2.2.3.34.3.09,0,.16-.04.22-.13.06-.09.1-.19.13-.31.03-.12.05-.23.07-.34.01-.11.02-.19.02-.22v-.52ZM24.75,0C11.08,0,0,11.08,0,24.75s11.08,24.75,24.75,24.75,24.75-11.08,24.75-24.75S38.42,0,24.75,0ZM20.4,47.21c.18-2.35.49-7.59,0-10.07h0s0-.01,0-.02c-.09-.48-.21-.9-.37-1.23-.46-.96-1.3-1.78-1.99-2.65-.6-.97-1.09-2.01-1.15-3.23-.03-.51.31-1.24.64-1.48,1.85-1.34,6.25,1.95,5.65,2.74-.77,1.01-3.89-.83-5-.59-.1.02-.1.46,0,.49l.5.19c1.91.72,4.25,1.47,5.12.34.14-.18.17-.55.17-.88.36-.09.71-.27.95-.45.24.45.68,1.16,1.1,1.36.55.26,1.47-.11,1.82-.63.12.5.28,1.23.49,1.59.41.69,1.27.52,1.85.05l-1.8,4.69-.06,9.9c-1.16.18-2.35.28-3.56.28-1.49,0-2.94-.15-4.35-.42ZM19.62,27.57c0-.79.14-1.71.36-2.57.11-.42.97-.7,1.37-.67.39.03,1.21.55,1.12.98l-.44,2.21s0-.02,0-.03c-.02.13-.04.27-.06.4l-.13.66-1.31-.61-.89-.36ZM23.41,25.32c.17-.4,1.3-.24,1.58.09.28.33.43.91.31,1.42-.35,1.61-.81,3.57-1.78,3.37-1.16-.23-.91-3.03-.11-4.88ZM26.68,31.19c-.68-.16-1.16-.86-1.05-1.63l.48-3.37c1.16-.6,2.5-.11,2.91,1.19-.57,1.44-1.22,2.77-2.34,3.8ZM29.93,27.74c.33-.41,1.26.06,1.46.42.29.51.36,1.17-.01,1.68l-1.73,2.37c-.1.14-.66.22-.74.08-.49-.88.07-3.38,1.02-4.55ZM29.03,47.23c.1-2.4-.27-7.97.2-9.64.71-2.55,1.83-4.86,2.83-7.28.38-.92.57-1.69-.06-2.55-.5-.68-1.34-1.12-2.35-.83-.6-1.57-2.32-2.11-3.73-1.46-.59-1.13-1.91-1.49-2.88-.85-.44-.58-1.05-.97-1.67-1.03-.59-.05-1.52.22-1.86.76-.4.63-.49,1.44-.6,2.25l-.04.86c-.76.07-1.36.16-1.88.56-.46.35-.88,1.27-.86,1.99.03,1.2.57,2.21,1.22,3.15.52.97,1.27,1.85,1.89,2.78.15.3.27.61.35.93.01.04.03.09.05.13.46,2.31.26,7.58.03,10.06C9.47,44.75,1.86,35.64,1.86,24.75,1.86,12.11,12.11,1.86,24.75,1.86s22.88,10.25,22.88,22.88c0,11.17-8.01,20.47-18.6,22.48Z"/>
  </g>
</svg>