<?xml version="1.0" encoding="UTF-8"?>
<svg id="b" data-name="Layer 2" xmlns="http://www.w3.org/2000/svg" viewBox="0 0 49.5 49.5">
  <g id="c" data-name="BACK">
    <path d="M24.75,0C11.08,0,0,11.08,0,24.75s11.08,24.75,24.75,24.75,24.75-11.08,24.75-24.75S38.42,0,24.75,0ZM9.39,38.23l-1.8-4.69c.58.46,1.44.64,1.85-.05.21-.36.37-1.09.49-1.59.35.52,1.27.89,1.82.63.42-.2.86-.92,1.1-1.36.43.32,1.23.68,1.77.47.37-.15.8-.69,1.11-1.18.52.49,1.39.72,2.09.41.7-.31.8-1.07,1.1-1.76l.94-2.13c.62-1.4,1.57-3.23,2.22-2.84.7.42.28,2.34-.24,3.81l-1.56,4.47c-.54,1.55-1.82,2.74-2.55,4.25-.96,1.99-.61,7.06-.39,9.73-2.95-1.01-5.64-2.6-7.91-4.65l-.05-3.52ZM8.85,33.07c-.08.14-.64.06-.74-.08l-1.73-2.37c-.37-.51-.3-1.18-.01-1.68.21-.36,1.13-.82,1.46-.42.95,1.17,1.51,3.67,1.02,4.55ZM8.74,28.16c.41-1.3,1.75-1.79,2.91-1.19l.48,3.37c.11.77-.36,1.46-1.05,1.63-1.12-1.03-1.77-2.36-2.34-3.8ZM12.77,26.19c.28-.33,1.41-.49,1.58-.09.8,1.85,1.04,4.65-.11,4.88-.98.19-1.43-1.76-1.78-3.37-.11-.51.03-1.09.31-1.42ZM15.3,26.08c-.09-.43.73-.95,1.12-.98.39-.03,1.26.25,1.37.67.51,1.98.64,4.38-.59,4.49-.5.05-1.14-.37-1.25-.93l-.64-3.25ZM32.11,37.24l-2.03-3.39c-1.37-2.29-2.23-4.84-2.63-7.5-.1-.64.13-1.42.69-1.75,1.55,1.27,1.52,3.66,2.81,4.66.82-.33,1.04-1.32.88-2.08l-1.09-5.32c-.18-.87-.35-2.1-.16-2.89,2.07-.69,3,4.21,3.54,6.92.04.18.37.59.5.49.63-.52.17-4.1.67-7.51.08-.58.53-1.32,1.07-1.32.31.33.65,1.12.64,1.55l-.27,7c0,.25.21.75.36.87.15.13.6-.29.69-.49l2.14-5.05c.33-.79.84-1.35,1.76-1.79-.02,1.44-.3,2.61-.6,4.01l-.92,4.3c-.04.2.26.84.44.8.18-.04.57-.24.72-.42l3.15-3.79.62-.17c.14-.04.23.63.16.76l-1.91,3.82c-1.39,2.78-2.6,5.54-3.45,8.55-.38,1.35-.57,3.5-.54,4.89-2.08,1.72-4.47,3.07-7.07,3.98.2-2.62.38-7.02-.15-9.12ZM40.13,41.7c.05-1.16.05-2.65.49-4.13.85-2.85,2.04-5.53,3.32-8.18.87-1.8,3.07-4.88,1.57-5.66-.31-.16-1.13-.08-1.4.22l-3.12,3.52,1.23-5.63c.14-.62.34-1.89.04-2.4-.51-.87-1.8-.24-2.25.45-1.04,1.57-1.63,3.15-2.4,4.88l.14-3.21c.1-2.25-.06-4.88-1.69-4.73-1.69.15-1.8,3.62-1.84,6.07-.62-2.41-1.93-5.62-3.83-4.69-.38.19-.81.99-.72,1.51l.68,3.94c.26,1.49.69,2.83.64,4.45l-1.77-3.53c-.15-.31-.87-.67-1.21-.65-1.01.06-1.55,1.63-1.22,3.25.45,2.17,1.12,4.24,2.12,6.19.69,1.35,1.67,2.52,2.28,3.9,1.02,2.31.47,7.18.37,9.34-2.16.67-4.45,1.04-6.83,1.04s-4.53-.35-6.64-.98c-.26-2.51-.51-7.51.2-9.6.8-1.32,1.97-2.49,2.48-3.93l1.99-5.69c.63-1.8.58-3.86-.63-4.03-1.63-.23-2.42,2.24-3.28,3.99-.11-.81-.2-1.61-.6-2.25-.34-.54-1.27-.81-1.86-.76-.62.05-1.22.44-1.67,1.03-.97-.64-2.29-.28-2.88.85-1.41-.65-3.14-.11-3.73,1.46-1.01-.29-1.85.15-2.35.83-.63.86-.44,1.62-.06,2.55,1,2.42,2.12,4.73,2.83,7.28.24.85.26,1.86.23,2.76-4.25-4.16-6.9-9.95-6.9-16.37C1.86,12.11,12.11,1.86,24.75,1.86s22.88,10.25,22.88,22.88c0,6.72-2.9,12.76-7.51,16.95ZM27.14,8.11c.08.06.16.12.23.21.07.08.13.17.19.29s.09.24.12.39c.03.15.04.32.04.51v.53c0,.29-.04.54-.15.77-.11.23-.25.43-.44.61-.17.16-.39.29-.67.39-.28.1-.58.13-.89.11h-1.17c-.4.03-.79-.04-1.15-.2-.37-.16-.68-.36-.93-.62-.09-.09-.18-.22-.24-.38-.07-.16-.12-.32-.17-.49-.05-.17-.08-.34-.11-.51-.02-.17-.03-.32-.03-.44v-1.14c0-.18.02-.37.05-.58.03-.21.09-.41.16-.62.07-.21.17-.4.29-.59.12-.19.26-.35.41-.48.16-.13.32-.24.5-.32.17-.08.34-.14.51-.19.17-.04.33-.07.48-.09.16-.01.3-.02.43-.02h3.03c.06,0,.09.03.09.09v1.89s0,.05-.02.07c-.02.02-.04.03-.06.02-.09,0-.23-.01-.42-.02-.19,0-.41-.01-.65-.02-.24,0-.49-.02-.75-.02-.26,0-.5,0-.73,0-.04,0-.09,0-.16,0-.07,0-.14,0-.21.01-.07.01-.12.04-.17.08-.05.04-.07.1-.07.19,0,.2.12.29.36.27.15-.01.33-.02.55-.02s.43.01.65.03.43.06.62.11c.2.05.36.13.49.21ZM24.77,10.67c.13,0,.21-.04.25-.14s.06-.19.06-.28v-.2c0-.08,0-.17,0-.26,0-.09,0-.19,0-.28v-.24s0-.06-.01-.1-.03-.08-.05-.12-.05-.08-.09-.11c-.04-.03-.09-.04-.15-.04-.12,0-.2.04-.25.13-.04.09-.06.17-.06.24,0,.04,0,.1,0,.18,0,.08,0,.17,0,.27s0,.19,0,.29,0,.18,0,.24c0,.13.02.23.07.3.05.07.14.11.26.12Z"/>
  </g>
</svg>