<?xml version="1.0" encoding="UTF-8"?>
<svg id="b" data-name="Layer 2" xmlns="http://www.w3.org/2000/svg" viewBox="0 0 49.5 49.5">
  <g id="c" data-name="BACK">
    <path d="M27.33,8.6c.06.08.11.16.16.24s.09.18.12.29.06.24.09.38c.02.14.03.3.03.49,0,.3-.07.57-.2.81-.13.24-.3.44-.52.61-.22.17-.46.29-.72.38-.27.09-.54.13-.82.13h-3.57c-.06,0-.09-.03-.09-.09v-.17c0-.07,0-.13,0-.21,0-.07,0-.14,0-.2v-.14c0-.17,0-.35.01-.54,0-.2.02-.44.02-.73,0-.06.03-.09.09-.09.15,0,.34,0,.57,0,.24,0,.47.01.7.02.23,0,.51.02.85.03.15.01.3.02.43.02.11,0,.21,0,.32-.01.11,0,.18-.03.21-.06.05-.04.09-.1.1-.17.02-.07,0-.14-.03-.2-.03-.05-.07-.09-.12-.11s-.1-.04-.15-.05c-.03,0-.12-.01-.25-.02-.14,0-.3-.01-.49-.01-.19,0-.39,0-.61,0s-.43,0-.63,0c-.2,0-.38,0-.55,0h-.36c-.06,0-.09-.03-.09-.09l-.08-3.76c0-.06.03-.09.09-.09h5.75c.06,0,.1.03.1.09,0,.08,0,.21,0,.37,0,.17-.01.34-.01.53,0,.19,0,.37,0,.54v.41c0,.06-.03.09-.08.09-.22,0-.5.01-.82.01-.32,0-.63,0-.93.01-.3,0-.56.01-.78.01-.22,0-.34,0-.36,0-.08,0-.16.02-.22.05-.07.04-.1.11-.1.21,0,.13.12.21.35.23.23.02.56.03.98.03.22,0,.41.02.58.07.17.04.32.1.45.18.13.07.24.15.34.24.1.09.18.18.26.28ZM24.75,0C11.08,0,0,11.08,0,24.75s11.08,24.75,24.75,24.75,24.75-11.08,24.75-24.75S38.42,0,24.75,0ZM21.04,47.33c.09-2.58-.08-8.04-.53-9.98l-1.81-2.79c-.76-1.18-1.32-2.37-1.67-3.72l-1.19-4.56c-.15-.56.15-1.3.59-1.66.41.28.88.79,1.06,1.2l1.26,2.9c.08.19.47.48.66.49.7.03.96-1.56.61-3.15l-1.06-4.81c-.14-.65-.19-1.73,0-2.27.62-.4,1.3.16,1.61.72,1.63,2.95,1.57,5.91,2.18,6.63.09.1.51-.02.52-.16l.04-.55.26-6.38c.02-.61.43-1.47.98-1.69.43.05.83.99.81,1.48l-.27,7.07c-.01.27.28.91.52.85.2-.05.52-.4.61-.61l2.38-5.46c.26-.59.8-1,1.51-1.2l-.81,4.62-.76,3.61c-.04.21.21.84.41.83.19-.01.57-.2.74-.41l3.13-3.71c.12-.14.55-.22.68-.22.92.02-1.45,3.68-1.87,4.67l-3.48,8.38-.21,9.93c-1.04.14-2.1.23-3.18.23-1.26,0-2.5-.11-3.71-.3ZM28.6,47.3c.13-2.41-.1-8.07.4-9.73.86-2.87,2.03-5.54,3.32-8.2.91-1.87,2.98-4.66,1.63-5.6-.27-.19-1.1-.18-1.33.08l-3.23,3.58,1.3-6.13c.13-.59.11-1.6-.11-2.08-.8-.5-1.89,0-2.27.78l-2.36,4.88.18-3.13c.12-2.19-.05-4.94-1.53-4.95-1.83-.02-1.9,3.52-2.04,5.84-.64-2.46-2.05-5.29-3.77-4.44-.4.2-.82.96-.73,1.47l.78,4.41c.25,1.41.61,2.69.57,4.15l-1.74-3.6c-.17-.35-.95-.71-1.32-.68-1.25.11-1.52,2.26-.96,3.99l1.67,5.18c.49,1.52,1.68,2.74,2.53,4.1.66,1.87.83,7.28.7,9.98C9.79,45.12,1.86,35.86,1.86,24.75,1.86,12.11,12.11,1.86,24.75,1.86s22.88,10.25,22.88,22.88c0,11.33-8.23,20.72-19.03,22.56Z"/>
  </g>
</svg>