<?xml version="1.0" encoding="UTF-8"?>
<svg id="b" data-name="Layer 2" xmlns="http://www.w3.org/2000/svg" viewBox="0 0 49.5 49.5">
  <g id="c" data-name="BACK">
    <path d="M27.7,8.29c.01.17.02.34.02.52,0,.18,0,.36,0,.53v.74c-.01.05-.04.08-.07.09-.03,0-.07.02-.12.03-.05.02-.09.04-.14.06-.04.03-.08.06-.12.09s-.06.08-.06.12c0,.08-.01.18-.01.3,0,.12,0,.25,0,.39,0,.13,0,.26.01.38,0,.12.01.21.02.28,0,.06-.03.1-.09.1h-2.14c-.06,0-.09-.03-.09-.1,0-.07.01-.17.02-.29,0-.12.01-.24.02-.37,0-.13.01-.24.01-.35,0-.1,0-.18,0-.21,0-.03,0-.06,0-.1,0-.04-.02-.08-.04-.12-.02-.04-.05-.08-.09-.11-.04-.04-.09-.06-.15-.06-.04,0-.12-.01-.26-.02-.13,0-.29-.01-.48-.01-.18,0-.38,0-.6,0s-.42,0-.62,0c-.2,0-.38,0-.54,0h-.36c-.06,0-.09-.03-.09-.09v-.5c0-.11,0-.23.03-.34.03-.13.05-.31.08-.53.03-.22.05-.46.08-.72s.05-.53.08-.81c.03-.28.05-.54.07-.79.02-.24.04-.46.06-.65.02-.19.03-.32.03-.41.01-.06.04-.09.09-.09h2.14c.07,0,.1.04.09.11-.01.1-.04.26-.07.49s-.06.45-.09.68c-.03.23-.05.44-.08.63-.02.19-.03.31-.03.35,0,.12.02.22.04.3.02.08.08.13.17.16.1.03.18.02.26-.03.08-.05.13-.13.15-.24,0-.01.01-.07.02-.17,0-.1.01-.23.02-.38,0-.15.02-.31.03-.5.01-.18.02-.36.03-.53,0-.17.01-.33.02-.47,0-.14.01-.25.02-.32,0-.06.03-.09.08-.09h2.08c.06,0,.09.03.09.1,0,.08-.01.21-.02.38,0,.17-.02.37-.02.58,0,.22,0,.44,0,.68s0,.46.02.67c0,.03,0,.07,0,.13s.02.12.04.19.07.12.12.17c.06.05.14.07.25.07.06,0,.09.03.09.09ZM24.75,0C11.08,0,0,11.08,0,24.75s11.08,24.75,24.75,24.75,24.75-11.08,24.75-24.75S38.42,0,24.75,0ZM20.61,47.25c.25-2.45.16-7.89-.71-9.72-.66-1.4-1.65-2.51-2.38-3.83-.87-1.57-1.24-3.46-.23-4.19,1.92-1.39,6.51,2.1,5.65,2.78-.13.1-.62.32-.78.27l-3.56-.93c-.18-.05-.4-.08-.51-.07-.11.01-.28.35-.2.43.07.08.32.28.43.32,2.05.69,4.74,1.66,5.42.14.57-1.29-1.87-2.97-3.69-3.67.18-1.13.07-2.27-.16-3.43l-1.1-5.62c-.05-.23.14-.7.29-.85.52-.54,1.87.91,2.23,2.33l1.2,4.65c.04.17.29.48.46.51.17.03.35-.47.36-.65l.27-6.61c.03-.62.52-1.37.99-1.65.59.45.85,1.4.81,2.22l-.31,6.46c-.01.26.27.9.49.82.18-.07.54-.41.62-.59l2.3-5.31c.31-.71.81-1.15,1.63-1.39l-.83,4.67-.78,3.6c-.05.22.21.79.4.79.15,0,.57-.15.67-.28l2.25-2.79c.51-.63,1-1,1.71-1.38.03.73-.07,1.41-.41,2.03l-1.61,2.92-3.4,8.27-.22,9.92c-1.03.14-2.09.22-3.16.22-1.41,0-2.79-.13-4.14-.38ZM28.61,47.3c.11-2.46-.13-8.08.42-9.87.86-2.81,2.01-5.44,3.27-8.06.87-1.81,3.03-4.81,1.66-5.62-.29-.17-1.14-.16-1.37.1l-3.2,3.58,1.29-6.11c.13-.61.13-1.59-.1-2.09-2.37-1.09-3.46,3.13-4.64,5.67l.18-3.13c.13-2.2-.06-5-1.54-5-1.83,0-1.91,3.56-2.04,5.88-.65-2.49-2.04-5.35-3.8-4.47-.36.18-.81,1.01-.71,1.51l1.04,5.41c.22,1.14.41,2.34.26,3.38-.94-.1-1.8-.05-2.49.43-.56.39-.95,1.36-.92,2.14.11,2.76,2.35,4.69,3.34,6.86.9,1.97.56,6.82.7,9.21C9.63,44.93,1.86,35.75,1.86,24.75,1.86,12.11,12.11,1.86,24.75,1.86s22.88,10.25,22.88,22.88c0,11.32-8.22,20.71-19.02,22.55Z"/>
  </g>
</svg>