<?xml version="1.0" encoding="UTF-8"?>
<svg id="b" data-name="Layer 2" xmlns="http://www.w3.org/2000/svg" viewBox="0 0 49.5 49.5">
  <g id="c" data-name="BACK">
    <path d="M27.07,8.49c.17.14.29.27.38.38s.15.23.2.36c.04.12.07.26.08.42,0,.15,0,.33,0,.54,0,.29-.06.54-.17.75s-.29.42-.53.62c-.14.11-.32.19-.53.26-.22.06-.46.1-.72.1h-3.87c-.06,0-.09-.03-.09-.1v-1.83c0-.06.03-.09.09-.09.1.01.26.02.47.03.21,0,.43,0,.65,0,.17,0,.33,0,.49-.01.16,0,.31-.02.44-.03s.26-.02.36-.04c.1-.02.18-.03.22-.04.1-.03.2-.07.28-.12.09-.05.13-.14.12-.27,0-.05-.04-.11-.1-.18s-.15-.09-.28-.08c-.09,0-.21.01-.36.02-.15,0-.31.01-.49.02-.17,0-.36.01-.54.01-.19,0-.37,0-.53,0-.17,0-.32,0-.45,0h-.29c-.06,0-.09-.03-.09-.09l-.05-.99c0-.06.03-.1.09-.1.07,0,.17,0,.3,0,.13,0,.28,0,.45-.01.17,0,.34-.01.51-.02.17,0,.34-.01.49-.02.15,0,.28-.01.39-.01s.17,0,.2,0c.06,0,.12-.01.2-.02.08,0,.15-.03.22-.06s.13-.07.19-.11.08-.11.08-.19-.02-.13-.05-.18c-.04-.04-.08-.08-.12-.1-.04-.03-.09-.04-.14-.05-.05,0-.09-.01-.12-.02-.06,0-.15,0-.28,0h-.45c-.17,0-.35,0-.53,0s-.37,0-.54.01c-.17,0-.33.01-.47.01-.14,0-.25,0-.31,0-.03,0-.06,0-.07-.02-.02-.02-.02-.04-.02-.07v-1.87c0-.06.03-.09.09-.09h3.21c.34,0,.67.01,1,.04.33.03.6.08.81.18.21.09.37.2.47.33.11.13.19.27.26.42.06.13.09.3.09.49,0,.19-.01.37-.04.52-.03.17-.07.31-.11.42-.04.11-.09.2-.14.27-.05.07-.1.12-.16.17-.05.04-.11.08-.16.13-.04.03-.07.08-.08.14,0,.06,0,.11.05.14ZM24.75,0C11.08,0,0,11.08,0,24.75s11.08,24.75,24.75,24.75,24.75-11.08,24.75-24.75S38.42,0,24.75,0ZM21.01,47.32c.05-2.69-.1-8.23-.77-10.19l-2.24-3.4c-.6-.91-.98-2.04-1.02-3.1-.03-.88.63-1.76,1.56-1.73,2.73.1,9.05.68,9.13,2.3.09,1.73-6.09.79-8.9.09-.18-.04-.67.22-.59.35.52.82,5.53,1.42,7.96,1.22l2.02-.17c.92-.08,1.86-.65,2.69-1.13-.8,2.05-1.76,3.95-2.3,6.09-.35,1.39-.5,7.27-.26,9.7-1.16.18-2.34.28-3.55.28-1.27,0-2.52-.11-3.74-.31ZM25.64,26.66c1.35-.07,2-6.58,4.61-7.25.33,2.7-.74,5.81-1.45,8.57l-1.6,1.55c-2.22-.7-4.51-1.1-6.9-1.27.05-1.16-.11-2.43-.37-3.67l-1.07-5.19.29-.76c.22-.58,1.82.41,2.28,2.16l1.23,4.74c.03.12.23.41.31.51.11.12.5-.32.5-.51l.06-4.53c.02-1.49.33-3.52,1.1-3.76.67-.21,1.01,1.78.91,3.57l-.29,5.13c-.01.2.22.72.38.71ZM27.82,30c.46-.55,1.2-1.33,1.87-1.63.95-.42,1.98.19,2.09,1.1-.85,1.19-1.98,2.05-3.46,2.5.23-.78.17-1.35-.49-1.98ZM28.93,47.25c.16-2.39-.12-7.74.37-9.47.81-2.89,2.12-5.46,3.21-8.26-.06-1.46-1.47-2.26-2.79-1.94.62-2.69,2.39-8.42.67-8.82-2.07-.48-3.3,3.71-4.33,6.02.21-2.99.8-8.11-1.23-8.29-1.88-.16-2.05,3.56-2.03,6.01-.68-2.42-2.05-5.47-3.81-4.65-2.1.97,1,7.15.52,10.28-.99.01-1.95.06-2.57.7-2.48,2.55,1.92,6.93,2.67,8.88.8,2.07.6,7.15.66,9.48C9.77,45.11,1.86,35.85,1.86,24.75,1.86,12.11,12.11,1.86,24.75,1.86s22.88,10.25,22.88,22.88c0,11.21-8.06,20.53-18.71,22.5Z"/>
  </g>
</svg>