<?xml version="1.0" encoding="UTF-8"?>
<svg id="b" data-name="Layer 2" xmlns="http://www.w3.org/2000/svg" viewBox="0 0 49.5 49.5">
  <g id="c" data-name="BACK">
    <path d="M24.75,0C11.08,0,0,11.08,0,24.75s11.08,24.75,24.75,24.75,24.75-11.08,24.75-24.75S38.42,0,24.75,0ZM8.89,33.12c-.08.14-.63.07-.74-.07l-1.72-2.34c-.43-.59-.36-1.12-.09-1.63.24-.46,1.17-.97,1.56-.46.9,1.15,1.44,3.69.99,4.51ZM8.72,28.24c.5-1.35,1.92-2.05,2.91-1.3.8,1.67.72,4.76-.2,4.97-.22.05-.76-.17-.88-.38l-1.83-3.3ZM8.74,34c.25.08.85-.43.89-.7l.21-1.46c.38.43,1.03.86,1.62.8,1.67-.16,1.69-3.33,1.04-5.74-.78-2.89-2.23-7.43-1.19-9.58.91.75,1.37,1.53,1.62,2.56l1.51,6.27c.04.16.41.55.53.45.12-.1.34-.48.34-.68l-.15-3.65.2-3.29c.02-.3.57-.73.86-.75.29-.02.89.45.91.83l.26,4.44c.1,1.7-.08,3.49.41,5.11.24.79,1.56.53,2.01.02l2.53-2.84c.14-.16.65-.33.85-.26.84.27-.26,2.57-1.35,4.11-1.65,2.34-3.07,4.7-4.31,7.28-.57,2.08-.49,6.62-.27,9.46-2.96-1.02-5.64-2.63-7.91-4.68l.07-3.35-1.8-4.68,1.1.34ZM32.11,37.24l-2.03-3.39c-1.37-2.29-2.23-4.84-2.63-7.5-.1-.64.13-1.42.69-1.75,1.55,1.27,1.52,3.66,2.81,4.66.82-.33,1.04-1.32.88-2.08l-1.09-5.32c-.18-.87-.35-2.1-.16-2.89,2.07-.69,3,4.21,3.54,6.92.04.18.37.59.5.49.63-.52.17-4.1.67-7.51.08-.58.53-1.32,1.07-1.32.31.33.65,1.12.64,1.55l-.27,7c0,.25.21.75.36.87.15.13.6-.29.69-.49l2.14-5.05c.33-.79.84-1.35,1.76-1.79-.02,1.44-.3,2.61-.6,4.01l-.92,4.3c-.04.2.26.84.44.8.18-.04.57-.24.72-.42l3.15-3.79.62-.17c.14-.04.23.63.16.76l-1.91,3.82c-1.39,2.78-2.6,5.54-3.45,8.55-.38,1.35-.57,3.5-.54,4.89-2.08,1.72-4.47,3.07-7.07,3.98.2-2.62.38-7.02-.15-9.12ZM40.13,41.7c.05-1.16.05-2.65.49-4.13.85-2.85,2.04-5.53,3.32-8.18.87-1.8,3.07-4.88,1.57-5.66-.31-.16-1.13-.08-1.4.22l-3.12,3.52,1.23-5.63c.14-.62.34-1.89.04-2.4-.51-.87-1.8-.24-2.25.45-1.04,1.57-1.63,3.15-2.4,4.88l.14-3.21c.1-2.25-.06-4.88-1.69-4.73-1.69.15-1.8,3.62-1.84,6.07-.62-2.41-1.93-5.62-3.83-4.69-.38.19-.81.99-.72,1.51l.68,3.94c.26,1.49.69,2.83.64,4.45l-1.77-3.53c-.15-.31-.87-.67-1.21-.65-1.01.06-1.55,1.63-1.22,3.25.45,2.17,1.12,4.24,2.12,6.19.69,1.35,1.67,2.52,2.28,3.9,1.02,2.31.47,7.18.37,9.34-2.16.67-4.45,1.04-6.83,1.04s-4.62-.36-6.76-1.02c-.01-2.15-.76-6.82.37-9.54,1.12-2.69,2.76-4.99,4.36-7.39,1.28-1.93,2.26-4.31.65-4.9-.39-.14-1.22.1-1.53.46l-2.26,2.57c-.27.31-.8.55-1.19.52l-.22-4.23c-.13-2.61.32-6.66-1.95-6.63-1.77.03-1.87,2.51-1.84,4.82-.43-1.6-.84-3.19-1.67-4.67-.39-.69-1.38-1.25-2.04-.57-1.32,1.37.15,6.29.8,8.9-1.54-.31-2.76.52-3.38,1.75-.74-.1-1.56.03-2.03.53-.54.58-.91,1.44-.62,2.18,1.05,2.67,2.25,5.09,3.07,7.87.23.79.25,1.86.23,2.82-4.25-4.16-6.89-9.95-6.89-16.36C1.86,12.11,12.11,1.86,24.75,1.86s22.88,10.25,22.88,22.88c0,6.72-2.9,12.76-7.51,16.95ZM26.85,8.36c.13.04.24.1.35.18.11.07.2.17.28.28.08.12.14.25.19.42.04.16.07.35.07.58,0,.2,0,.37,0,.51,0,.15-.02.28-.05.39-.03.11-.06.22-.11.31s-.11.19-.19.28c-.16.18-.33.33-.52.44-.19.11-.45.17-.8.17h-2.69c-.22,0-.43-.04-.62-.11-.19-.07-.36-.18-.51-.31-.14-.13-.26-.29-.34-.48-.08-.19-.12-.4-.12-.62,0-.1,0-.2,0-.31,0-.11,0-.23,0-.35,0-.23.03-.43.1-.59.06-.17.14-.3.23-.41.09-.11.19-.2.29-.26.1-.06.19-.11.27-.13.1-.03.14-.08.12-.15-.01-.07-.06-.12-.13-.15-.11-.04-.22-.08-.33-.12-.1-.04-.2-.11-.28-.2-.08-.09-.14-.22-.19-.39-.04-.17-.06-.4-.06-.69,0-.19.04-.37.11-.54.07-.17.16-.32.28-.44.12-.12.26-.22.42-.3s.34-.11.54-.11h3.02c.86,0,1.32.43,1.37,1.28.07.85-.17,1.36-.71,1.53-.06.02-.1.07-.1.15,0,.08.03.13.12.17ZM24.41,6.73c0,.09,0,.2,0,.33,0,.13,0,.24,0,.32,0,.02,0,.06,0,.11,0,.05.01.11.03.17.02.06.05.11.09.16.04.05.1.07.18.07.1,0,.17-.03.22-.09.04-.06.07-.12.09-.19s.02-.11.02-.15,0-.09,0-.15,0-.12,0-.19c0-.07,0-.13,0-.19v-.15s0-.08-.01-.14-.03-.11-.05-.16c-.03-.05-.06-.09-.1-.13s-.08-.05-.13-.05c-.11,0-.19.05-.25.15s-.09.19-.1.28ZM25.06,10.51v-.92c-.01-.13-.04-.24-.08-.32s-.12-.12-.25-.12c-.06,0-.12.02-.16.06-.04.04-.07.08-.1.13s-.04.1-.05.15c0,.05-.01.09-.01.12v.17c0,.08,0,.16,0,.25,0,.09,0,.17,0,.25v.18s0,.06.01.11.03.09.05.13c.03.04.06.08.09.11s.09.04.14.04c.11,0,.2-.04.25-.11s.08-.16.08-.24Z"/>
  </g>
</svg>