<?xml version="1.0" encoding="UTF-8"?>
<svg id="b" data-name="Layer 2" xmlns="http://www.w3.org/2000/svg" viewBox="0 0 49.5 49.5">
  <g id="c" data-name="BACK">
    <path d="M26.56,5.33c0,.06,0,.14,0,.23,0,.1,0,.2,0,.31,0,.11,0,.22,0,.33,0,.11,0,.21,0,.28,0,.28-.01.55-.01.82s0,.53,0,.81,0,.55,0,.83c0,.28.02.58.03.9,0,.14.01.31.01.51,0,.2,0,.39,0,.58,0,.19,0,.37,0,.53,0,.17,0,.29,0,.36,0,.06-.03.09-.09.09h-2.45c-.06,0-.08-.03-.08-.1,0-.06,0-.13,0-.23,0-.1,0-.2.01-.3,0-.11.01-.21.01-.31,0-.1,0-.17.01-.22.01-.15.02-.32.03-.52,0-.2,0-.39,0-.57v-.78s0-.06,0-.12c0-.06,0-.13,0-.2,0-.07-.02-.14-.05-.2-.03-.07-.06-.12-.12-.16-.04-.03-.1-.04-.18-.06s-.15-.02-.23-.02-.16,0-.23,0c-.07,0-.13.01-.19.02-.06,0-.09-.03-.11-.09,0-.07,0-.17,0-.32,0-.14,0-.3,0-.47s0-.36,0-.56c0-.2.01-.4.02-.6,0-.04.02-.07.06-.08.15-.05.29-.12.42-.19s.23-.15.32-.23c.09-.08.16-.15.22-.21.06-.06.1-.11.12-.14.02-.03.04-.04.07-.04h2.32c.06,0,.09.03.09.1ZM24.75,0C11.08,0,0,11.08,0,24.75s11.08,24.75,24.75,24.75,24.75-11.08,24.75-24.75S38.42,0,24.75,0ZM20.87,47.3c.13-3.1.08-8.79-.75-10.69-.91-2.08-3.1-3.9-3.24-6.59-.03-.51.31-1.24.64-1.48,1.85-1.34,6.25,1.95,5.65,2.74-.77,1.01-3.89-.83-5-.59-.1.02-.1.46,0,.49l.5.19c1.91.72,4.25,1.47,5.12.34.19-.25.19-.84.15-1.21l1.04-.68c.16.63.57,1.33,1.04,1.48.67.22,1.36-.13,1.84-.65.08.48.2,1.16.49,1.66.3.51,1.14.38,1.74.13l-1.74,4.62c-.14,1.92-.19,7.5-.22,10.32-1.1.16-2.22.25-3.37.25-1.32,0-2.62-.12-3.88-.33ZM18.72,17.55c.09-.19.75-.19.93-.05,1.73,1.4,2.35,5.1,2.81,7.62-.26,1.15-.41,2.05-.62,3.44l-1.89-.89c.34-3.32-2.03-8.37-1.23-10.12ZM23.34,24.92c.32-.52,1.8-.09,1.85.58.14,1.8-.68,4.35-1.66,4.24-1.16-.13-.93-2.88-.19-4.82ZM28.88,26.91c-.18,1.26-1.63,3.78-2.47,3.72-1.01-.07-.87-3.08-.17-4.9.5-.84,2.79.08,2.64,1.18ZM29.96,27.28c.66-.63,1.97.66,1.64,1.45-.53,1.29-1.8,3.21-2.52,3.22-.69,0-.38-3.47.88-4.68ZM28.88,47.25c.18-2.44-.29-7.67.32-10.06.72-2.82,2.06-5.32,3.1-8.05.31-.81-.06-1.63-.68-2.25-.43-.43-1.16-.61-1.99-.45-.69-1.52-2.37-2.18-3.85-1.47-.61-.96-1.79-1.25-2.71-.83-.37-1.81-.8-3.55-1.51-5.31-.66-1.62-2.14-2.73-3.15-2-1.78,1.29,1.08,7.24.82,10.59-.95.09-1.64.13-2.25.6-.46.35-.88,1.27-.86,1.99.08,2.81,2.33,4.78,3.3,6.86,1.1,2.36.56,7.67.71,10.3C9.71,45.03,1.86,35.81,1.86,24.75,1.86,12.11,12.11,1.86,24.75,1.86s22.88,10.25,22.88,22.88c0,11.23-8.09,20.56-18.76,22.51Z"/>
  </g>
</svg>