<?xml version="1.0" encoding="UTF-8"?>
<svg id="b" data-name="Layer 2" xmlns="http://www.w3.org/2000/svg" viewBox="0 0 49.5 49.5">
  <g id="c" data-name="BACK">
    <path d="M24.75,0C11.08,0,0,11.08,0,24.75s11.08,24.75,24.75,24.75,24.75-11.08,24.75-24.75S38.42,0,24.75,0ZM9.32,38.45c-.36-1.66-1.11-3.11-1.69-4.74.6.27,1.36.39,1.72-.03.36-.43.47-1.19.45-1.78.42.44,1.18.93,1.81.76.58-.16.99-.93,1.23-1.59.38.48,1.12.8,1.7.66,1.79-.44,1.17-3.05.88-4.92-.44-2.89-.56-8.76.97-8.53,1.78.26.35,7.01,1.44,10.42.22.69,1.54.48,1.95.02l2.62-2.94c.13-.15.58-.3.75-.24.59.21.24,1.58-.5,2.75-1.81,2.85-3.45,5.63-5.07,8.59-.63,2.13-.66,6.59-.46,9.45-2.85-1.01-5.44-2.57-7.65-4.55.1-.95.1-2.23-.14-3.32ZM8.73,33.24c-.77.07-2.31-2.18-2.62-3.4-.18-.69,1.05-1.78,1.56-1.34,1.42,1.22,1.61,4.68,1.05,4.74ZM8.7,28.37c.4-1.32,1.57-1.91,2.94-1.48.32,1.91.8,4.82-.21,5.02-.24.05-.84-.18-.96-.4l-1.76-3.14ZM12.47,26.81c.35-.72,1.45-1.03,2-.6.56,1.96,1,4.59-.18,4.82-1.1.22-1.74-2.28-1.82-4.22ZM32.11,37.24l-2.03-3.39c-1.37-2.29-2.23-4.84-2.63-7.5-.1-.64.13-1.42.69-1.75,1.55,1.27,1.52,3.66,2.81,4.66.82-.33,1.04-1.32.88-2.08l-1.09-5.32c-.18-.87-.35-2.1-.16-2.89,2.07-.69,3,4.21,3.54,6.92.04.18.37.59.5.49.63-.52.17-4.1.67-7.51.08-.58.53-1.32,1.07-1.32.31.33.65,1.12.64,1.55l-.27,7c0,.25.21.75.36.87.15.13.6-.29.69-.49l2.14-5.05c.33-.79.84-1.35,1.76-1.79-.02,1.44-.3,2.61-.6,4.01l-.92,4.3c-.04.2.26.84.44.8.18-.04.57-.24.72-.42l3.15-3.79.62-.17c.14-.04.23.63.16.76l-1.91,3.82c-1.39,2.78-2.6,5.54-3.45,8.55-.38,1.35-.57,3.5-.54,4.89-2.08,1.72-4.47,3.07-7.07,3.98.2-2.62.38-7.02-.15-9.12ZM40.13,41.7c.05-1.16.05-2.65.49-4.13.85-2.85,2.04-5.53,3.32-8.18.87-1.8,3.07-4.88,1.57-5.66-.31-.16-1.13-.08-1.4.22l-3.12,3.52,1.23-5.63c.14-.62.34-1.89.04-2.4-.51-.87-1.8-.24-2.25.45-1.04,1.57-1.63,3.15-2.4,4.88l.14-3.21c.1-2.25-.06-4.88-1.69-4.73-1.69.15-1.8,3.62-1.84,6.07-.62-2.41-1.93-5.62-3.83-4.69-.38.19-.81.99-.72,1.51l.68,3.94c.26,1.49.69,2.83.64,4.45l-1.77-3.53c-.15-.31-.87-.67-1.21-.65-1.01.06-1.55,1.63-1.22,3.25.45,2.17,1.12,4.24,2.12,6.19.69,1.35,1.67,2.52,2.28,3.9,1.02,2.31.47,7.18.37,9.34-2.16.67-4.45,1.04-6.83,1.04s-4.72-.37-6.9-1.06c-.1-2.29-.51-7.42.61-9.68,1.08-2.19,2.34-4.22,3.6-6.29,1.11-1.82,3.25-4.77,1.49-5.7-.44-.23-1.32-.09-1.66.31l-2.05,2.34c-.4.45-.8.74-1.47.86l-.22-4.62c-.12-2.46.26-6.41-1.94-6.27-2.06.13-1.93,4.85-1.74,7.74-1-.12-1.91.3-2.55.93-1.44-.45-3.1-.02-3.78,1.5-.84-.03-1.69.08-2.21.7-.47.56-.75,1.37-.45,2.11l3.17,7.83-.05,2.63c-4.16-4.14-6.73-9.88-6.73-16.21C1.86,12.11,12.11,1.86,24.75,1.86s22.88,10.25,22.88,22.88c0,6.72-2.9,12.76-7.51,16.95ZM27.66,6.29c0,.06,0,.17,0,.32,0,.15,0,.31,0,.47s0,.33,0,.49c0,.16,0,.28,0,.36,0,.06-.02.12-.06.17-.05.07-.13.19-.23.37-.1.17-.2.4-.3.66-.03.07-.08.18-.15.32-.07.15-.16.31-.25.5-.09.18-.19.38-.3.58s-.21.39-.31.57-.18.33-.26.47-.12.23-.16.29c-.01.03-.04.05-.08.05h-3.57s-.06-.01-.07-.04c-.02-.03-.02-.06,0-.09.05-.09.12-.21.22-.38.1-.16.2-.33.31-.52.11-.18.22-.36.33-.54.11-.18.21-.33.29-.45.03-.04.09-.13.17-.26.08-.14.16-.28.25-.44.09-.16.17-.31.26-.46.08-.15.14-.26.17-.32.04-.09.05-.18.01-.26-.04-.08-.12-.13-.25-.13-.19,0-.38,0-.56,0-.18,0-.35,0-.5,0h-.68s-.05,0-.06-.02c-.02-.02-.02-.04-.02-.07,0-.19,0-.42,0-.67,0-.26-.01-.52-.02-.77,0-.26-.02-.49-.02-.7,0-.21,0-.36,0-.46,0-.06.03-.1.09-.1h5.68c.06,0,.09.03.09.1,0,.05,0,.12,0,.2,0,.08,0,.17,0,.26,0,.09,0,.18,0,.27v.23Z"/>
  </g>
</svg>