<?xml version="1.0" encoding="UTF-8"?>
<svg id="a" data-name="Layer 1" xmlns="http://www.w3.org/2000/svg" viewBox="0 0 500 500">
  <path d="M308.45,345.69c-3.49-3.25-5.52-7.93-5.53-12.76,0-4.84,2-9.53,5.52-12.86l39.14-36.96c3.24-3.09,7.55-4.81,12.09-4.81,4.86,0,9.55,2.04,12.87,5.59l4.38,4.6c6.22,6.61,6.38,16.77.68,23.52h6.6c13.82-25.04,20.77-54.24,18.46-84.89-6.28-83.07-79.08-146.49-163.26-139.97-84.39,6.54-146.68,80.47-139.9,163.8,6.79,83.46,79.75,145.76,163.21,139.36,25.37-1.95,48.78-10.05,68.94-22.69l-23.2-21.93ZM166.92,282.34c-.92-.21-2.58-1.43-3.04-2.41-17.61-36.97-9.8-80.68,18.68-109.34,28.51-28.7,72.22-36.79,109.29-19.4,1.17.55,2.44,1.85,2.81,2.74.37.89.13,3.25-1.09,4.48l-122.73,122.73c-.9.9-2.99,1.41-3.9,1.2ZM210.23,326.08c-1.42-.67-2.61-2.27-2.78-3.19s.32-3.01,1.22-3.91l122.63-122.63c.9-.9,2.97-1.42,3.89-1.21.92.21,2.58,1.43,3.05,2.41,17.55,36.96,9.66,80.54-18.82,109.18-28.46,28.61-71.95,36.81-109.19,19.35ZM439.49,360.95l-18.76-17.74c-1.31-1.24-1.36-3.3-.12-4.61l4.47-4.7c1.24-1.3,3.29-1.36,4.6-.12l39.11,36.95c1.36,1.29,1.36,3.45,0,4.73l-39.12,36.95c-1.31,1.23-3.37,1.18-4.6-.13l-4.46-4.71c-1.24-1.31-1.18-3.37.13-4.61l18.78-17.75c2.14-2.02.71-5.62-2.24-5.62h-50.19c-1.8,0-3.26-1.46-3.26-3.26v-6.48c0-1.8,1.46-3.26,3.25-3.26l50.17-.02c2.95,0,4.38-3.6,2.24-5.62ZM349.84,339.4l50.17-.02c1.8,0,3.26-1.46,3.26-3.26v-6.48c0-1.8-1.46-3.26-3.26-3.26h-50.19c-2.95,0-4.38-3.61-2.24-5.63l18.78-17.75c1.31-1.24,1.37-3.3.13-4.61l-4.46-4.71c-1.24-1.3-3.3-1.36-4.6-.13l-39.12,36.95c-1.36,1.29-1.36,3.45,0,4.73l39.11,36.95c1.3,1.23,3.36,1.18,4.6-.12l4.47-4.7c1.24-1.31,1.19-3.37-.12-4.61l-18.76-17.74c-2.14-2.02-.71-5.62,2.24-5.62Z" style="fill: #231f20;"/>
</svg>