<?xml version="1.0" encoding="UTF-8"?>
<svg xmlns="http://www.w3.org/2000/svg" viewBox="0 0 500 500">
  <rect width="500" height="500" style="fill: #fff;"/>
  <g id="a" data-name="Layer 1">
    <path d="M294.63,198.97l9.42,8.62c2.6,2.38,6.84,2.4,9.46.04l44.92-40.43c4.23-3.81,11.41-1.08,11.41,4.33l.02,51.45c0,3.36,3,6.09,6.7,6.09h13.33c3.7,0,6.7-2.73,6.7-6.09v-101.27c0-3.36-3.01-6.09-6.7-6.09h-111.35c-3.7,0-6.7,2.72-6.7,6.09v12.12c0,3.36,3,6.09,6.69,6.09l55.87.02c5.98,0,8.96,6.6,4.71,10.42l-44.43,39.99c-2.63,2.37-2.65,6.23-.04,8.63ZM183.66,208.33l9.48-8.57c2.62-2.37,2.64-6.22.04-8.61l-44.44-40.85c-4.18-3.85-1.19-10.38,4.76-10.38l56.57-.02c3.7,0,6.7-2.73,6.7-6.09v-12.13c0-3.36-3-6.09-6.7-6.09h-111.34c-3.7,0-6.7,2.73-6.7,6.1v101.28c0,3.36,2.99,6.09,6.69,6.09h13.32c3.7,0,6.7-2.73,6.7-6.09l.03-50.81c0-5.44,7.25-8.15,11.46-4.28l43.96,40.42c2.61,2.4,6.85,2.41,9.48.04ZM193.96,301.03l-9.42-8.62c-2.6-2.38-6.84-2.4-9.46-.04l-44.92,40.43c-4.23,3.81-11.41,1.08-11.41-4.33l-.02-51.45c0-3.36-3-6.09-6.7-6.09h-13.33c-3.7,0-6.7,2.73-6.7,6.09v101.27c0,3.36,3.01,6.09,6.7,6.09h111.35c3.7,0,6.7-2.72,6.7-6.09v-12.12c0-3.36-3-6.09-6.69-6.09l-55.87-.02c-5.98,0-8.96-6.6-4.71-10.42l44.43-39.99c2.63-2.37,2.65-6.23.04-8.63ZM304.93,291.67l-9.48,8.57c-2.62,2.37-2.64,6.22-.04,8.61l44.44,40.85c4.18,3.85,1.19,10.38-4.76,10.38l-56.57.02c-3.7,0-6.7,2.73-6.7,6.09v12.13c0,3.36,3,6.09,6.7,6.09h111.34c3.7,0,6.7-2.73,6.7-6.1v-101.28c0-3.36-2.99-6.09-6.69-6.09h-13.32c-3.7,0-6.7,2.73-6.7,6.09l-.03,50.81c0,5.44-7.25,8.15-11.46,4.28l-43.96-40.42c-2.61-2.4-6.85-2.41-9.48-.04Z" style="fill: #231f20;"/>
  </g>
</svg>