<?xml version="1.0" encoding="UTF-8"?>
<svg id="a" data-name="Layer 1" xmlns="http://www.w3.org/2000/svg" viewBox="0 0 500 500">
  <path d="M442.24,344.96l-18.29-17.3c-1.28-1.21-1.33-3.22-.12-4.5l4.36-4.59c1.21-1.27,3.21-1.32,4.48-.12l38.14,36.03c1.33,1.25,1.33,3.36,0,4.62l-38.15,36.04c-1.27,1.2-3.28,1.15-4.49-.12l-4.35-4.6c-1.21-1.27-1.15-3.29.12-4.49l18.31-17.31c2.09-1.97.69-5.48-2.18-5.48h-48.94c-1.75,0-3.18-1.43-3.18-3.18v-6.32c0-1.75,1.42-3.18,3.17-3.18h48.92c2.87-.02,4.27-3.53,2.18-5.5ZM354.82,323.94h48.92c1.75-.02,3.18-1.44,3.18-3.19v-6.32c0-1.75-1.42-3.17-3.18-3.18h-48.94c-2.87,0-4.27-3.52-2.18-5.49l18.31-17.31c1.28-1.21,1.33-3.22.12-4.49l-4.35-4.6c-1.21-1.27-3.21-1.33-4.49-.12l-38.15,36.04c-1.33,1.25-1.33,3.36,0,4.62l38.14,36.03c1.27,1.2,3.28,1.15,4.48-.12l4.36-4.59c1.21-1.27,1.16-3.29-.12-4.5l-18.29-17.3c-2.09-1.97-.69-5.48,2.18-5.48ZM135.03,341.8V119.08c-9.71,5.39-16.33,15.69-16.33,27.59v200.01c0,30.69,24.88,55.58,55.58,55.58h118.99c11.2,0,20.73-6.04,26.32-14.84h-138.95c-25.19,0-45.62-20.42-45.62-45.62ZM282,213.44l-.1-13.05c-.12-16.39-13.97-29.12-29.99-29.01-16.02.11-29.49,13.05-29.59,29.43l-.08,12.64c-10.05,4.88-16.27,14.82-16.24,25.88l.06,20.74c.04,15.48,12.75,28.14,28.23,28.12l35.93-.03c15.29-.01,27.91-12.67,27.96-27.65l.06-21.18c.03-11.06-6.19-20.99-16.23-25.88ZM237.13,210.57v-9.38c.01-8.48,7.01-15.07,15.19-14.95,8.27.12,14.92,6.87,14.79,15.37v8.94s-29.98.01-29.98.01ZM314.45,330.08c-3.4-3.17-5.38-7.73-5.39-12.44,0-4.72,1.95-9.29,5.38-12.54l32.5-30.69V126.81c0-16.05-13.01-29.07-29.07-29.07h-131.48c-16.05,0-29.07,13.01-29.07,29.07v205.99c0,16.05,13.01,29.07,29.07,29.07h131.48c8.19,0,15.58-3.39,20.86-8.84l-24.28-22.95ZM272.98,312.33l-41.4.03h-.05c-26.26,0-47.69-21.15-47.77-47.14l-.07-24.4c-.05-15.3,6.95-29.27,18.76-38.34l.04-6.19c.18-26.89,22.29-48.9,49.28-49.1,27.51,0,49.76,21.8,49.96,48.6l.05,6.69c11.81,9.09,18.81,23.06,18.76,38.36l-.07,24.39c-.07,25.97-21.37,47.1-47.49,47.11Z" style="fill: #231f20;"/>
</svg>