<?xml version="1.0" encoding="UTF-8"?>
<svg id="a" data-name="Layer 1" xmlns="http://www.w3.org/2000/svg" viewBox="0 0 500 500">
  <path d="M252.55,386.86c-4.94,10.27-16.36,12.31-27.64,10.37-8.73-2.27-13.84-9.75-13.18-19.14l30.38-117.82-72.53-.09c-8.04-1.92-12.2-7.76-11.25-16.07l18.57-137.57c.86-6.39,5.71-12.34,12.88-12.34l84.02.04c8.16,0,14.17,8.84,11.95,16.35l-22.48,76.08,68.52.32c7.52.04,11.18,8.29,9.58,15.09l-88.81,184.78ZM432.51,359.51l-49.71.02c-1.78,0-3.23,1.45-3.23,3.23v6.42c0,1.78,1.45,3.23,3.23,3.23h49.73c2.92,0,4.34,3.57,2.22,5.58l-18.61,17.59c-1.3,1.23-1.35,3.27-.13,4.57l4.42,4.67c1.22,1.29,3.27,1.35,4.56.13l38.76-36.62c1.35-1.27,1.35-3.42,0-4.69l-38.75-36.62c-1.29-1.22-3.33-1.17-4.56.12l-4.43,4.66c-1.23,1.29-1.18,3.34.12,4.57l18.59,17.58c2.12,2.01.7,5.57-2.22,5.57ZM343.67,338.15l18.59,17.58c1.3,1.23,1.35,3.27.12,4.57l-4.43,4.66c-1.23,1.29-3.26,1.34-4.56.12l-38.75-36.62c-1.35-1.27-1.35-3.42,0-4.69l38.76-36.62c1.29-1.22,3.34-1.17,4.56.13l4.42,4.67c1.23,1.3,1.17,3.34-.13,4.57l-18.61,17.59c-2.12,2.01-.7,5.57,2.22,5.57h49.73c1.78,0,3.23,1.45,3.23,3.23v6.42c0,1.78-1.44,3.23-3.22,3.23l-49.71.02c-2.92,0-4.34,3.57-2.22,5.57Z" style="fill: #231f20;"/>
</svg>