<?xml version="1.0" encoding="UTF-8"?>
<svg id="a" data-name="Layer 1" xmlns="http://www.w3.org/2000/svg" viewBox="0 0 500 500">
  <path d="M284.15,273.1l-177.78-.05c-6.37,0-11.54-5.17-11.54-11.55v-22.97c0-6.37,5.18-11.54,11.55-11.54l177.85-.02c10.44,0,15.51-12.76,7.93-19.93l-66.55-62.9c-4.64-4.38-4.84-11.69-.45-16.33l15.81-16.7c4.38-4.62,11.68-4.83,16.31-.45l138.62,130.96c4.82,4.55,4.82,12.23,0,16.78l-138.59,130.94c-4.62,4.37-11.91,4.17-16.29-.44l-15.84-16.67c-4.4-4.63-4.21-11.95.43-16.34l66.48-62.88c7.58-7.17,2.51-19.92-7.93-19.93Z" style="fill: #231f20;"/>
</svg>