<?xml version="1.0" encoding="UTF-8"?>
<svg id="b" data-name="Layer 2" xmlns="http://www.w3.org/2000/svg" viewBox="0 0 500.07 467.76">
  <g id="c" data-name="Layer 1">
    <path d="M189.33,195.97l291.8.09c10.46,0,18.94,8.49,18.94,18.95v37.71c-.02,10.46-8.49,18.94-18.95,18.94l-291.91.04c-17.14,0-25.46,20.94-13.01,32.71l109.24,103.23c7.61,7.19,7.94,19.19.74,26.8l-25.96,27.41c-7.19,7.59-19.17,7.92-26.76.74L5.93,247.63c-7.91-7.48-7.91-20.07,0-27.54L233.41,5.17c7.59-7.17,19.55-6.85,26.74.72l26.01,27.35c7.22,7.6,6.9,19.61-.71,26.82l-109.12,103.2c-12.45,11.77-4.12,32.7,13.01,32.71Z" style="fill: #231f20;"/>
  </g>
</svg>