<?xml version="1.0" encoding="UTF-8"?>
<svg id="b" data-name="Layer 2" xmlns="http://www.w3.org/2000/svg" viewBox="0 0 500.07 467.76">
  <g id="c" data-name="Layer 1">
    <path d="M310.74,271.79l-291.8-.09C8.48,271.69,0,263.21,0,252.75v-37.71c.02-10.46,8.49-18.94,18.95-18.94l291.91-.04c17.14,0,25.46-20.94,13.01-32.71l-109.24-103.23c-7.61-7.19-7.94-19.19-.74-26.8l25.96-27.41c7.19-7.59,19.17-7.92,26.76-.74l227.52,214.95c7.91,7.48,7.91,20.07,0,27.54l-227.47,214.92c-7.59,7.17-19.55,6.85-26.74-.72l-26.01-27.35c-7.22-7.6-6.9-19.61.71-26.82l109.12-103.2c12.45-11.77,4.12-32.7-13.01-32.71Z" style="fill: #231f20;"/>
  </g>
</svg>