<?xml version="1.0" encoding="UTF-8"?>
<svg id="a" data-name="Layer 1" xmlns="http://www.w3.org/2000/svg" viewBox="0 0 1024 581.76">
  <path d="M262.03,283.03c.52,7.41,1,15.86,1.44,25.36.44,9.51,1.02,19.35,1.74,29.52.72,10.18,1.43,20.37,2.15,30.54.72,10.18,1.61,19.66,2.68,28.41.8,5.06,1.56,11.05,2.29,17.97.71,6.92,1.45,14.19,2.22,21.81.76,7.62,1.41,15.13,1.93,22.53.52,7.41.99,14.12,1.42,20.13.13,1.85-.22,3.4-1.04,4.61-.83,1.23-1.69,1.87-2.59,1.94l-96.24,7.1c-26.66,1.97-50.19-1.76-70.61-11.18-20.42-9.42-37.7-22.68-51.85-39.78-14.15-17.09-25.1-37.22-32.86-60.36-7.76-23.15-12.52-47.21-14.28-72.2L1.87,216.42c-1.6-22.67-1.43-42.91.49-60.73,1.92-17.81,4.56-33.48,7.93-46.98,3.36-13.5,7.22-24.71,11.6-33.65,4.36-8.92,8.19-15.83,11.49-20.73,4.87-8.26,10.96-15.11,18.31-20.54,7.33-5.42,15.19-9.95,23.57-13.6,8.37-3.64,17.15-6.38,26.33-8.22,9.17-1.83,17.84-3.06,25.97-3.66L240.06,0c.9-.07,1.84.45,2.83,1.53.98,1.09,1.54,2.57,1.67,4.41.68,9.72,1.39,21.42,2.13,35.07.73,13.67,1.55,30.23,2.48,49.7.29,4.16.64,10.77,1.05,19.81.4,9.04.98,18.76,1.71,29.18.73,10.41,1.47,20.82,2.2,31.23.73,10.41,1.36,19.33,1.88,26.72.29,4.16-1.59,6.4-5.66,6.7-8.59.63-18.51,1.61-29.77,2.9-11.27,1.3-21.97,2.44-32.12,3.42-10.15.99-19.05,1.99-26.7,3.02-7.65,1.03-12.15,1.6-13.51,1.7-14.46,1.07-25.06,5.34-31.8,12.81-6.74,7.47-9.44,14.42-8.07,20.83,1.49,8.26,4.1,14.7,7.83,19.31,3.73,4.61,8.27,7.88,13.63,9.81,5.35,1.94,11.45,2.99,18.28,3.19,6.83.19,13.88.49,21.18.88,6.81-.03,12.94-.02,18.4.04,5.46.07,11.23-.13,17.33-.58,6.1-.45,13.09-1.08,20.98-1.9,7.88-.81,17.69-1.88,29.41-3.22,4.07-.3,6.26,1.87,6.59,6.49Z" style="fill: #f4ead6;"/>
  <path d="M542.15,82.34l13.92,230.58c1.01,16.67,2.13,37.16,3.37,61.49,1.23,24.32,2.48,48.65,3.72,72.97,1.23,24.32,2.35,46.56,3.35,66.72.98,20.16,1.72,34.17,2.2,42.04.25,4.17-1.66,6.38-5.73,6.64l-97.66,6.18c-4.07.26-6.23-1.7-6.48-5.86-.22-3.7-.52-8.68-.9-14.93-.38-6.25-.88-12.72-1.51-19.42-.64-6.69-1.25-13.17-1.85-19.4-.61-6.24-1.03-11.44-1.28-15.61-.82-5.98-1.37-13.16-1.64-21.51-.28-8.35-1.23-16.41-2.82-24.22-1.61-7.8-4.28-14.48-8.02-20.06-3.74-5.57-9.46-8.12-17.14-7.63-7.24.46-12.27,3.69-15.07,9.67-2.82,5.99-4.32,13.06-4.51,21.2-.19,8.15.18,16.26,1.13,24.33.93,8.08,1.55,14.43,1.83,19.06l1.03,17.02c.41,6.72.92,13.43,1.56,20.12.63,6.7,1.23,13.06,1.83,19.06.59,6.01,1,10.86,1.22,14.56.28,4.63-1.62,7.07-5.68,7.33l-99.02,6.27c-4.07.26-6.23-1.7-6.48-5.86-.5-8.33-1.14-22.59-1.9-42.76-.77-20.17-1.66-42.53-2.69-67.11-1.04-24.56-2.28-49.01-3.74-73.31s-2.7-44.8-3.71-61.47c-1.01-16.67-2.43-36.45-4.26-59.34-1.84-22.89-3.66-45.54-5.46-67.98-1.81-22.42-3.62-43-5.42-61.71-1.81-18.71-2.94-31.76-3.39-39.18-.28-4.62,1.62-7.07,5.68-7.33l99.69-6.31c4.07-.26,6.23,1.7,6.48,5.86.34,5.56.8,13.32,1.4,23.27.6,9.96,1.1,20.15,1.51,30.58.4,10.43.87,20.05,1.4,28.84.53,8.8.91,15.05,1.13,18.75,1.26,20.84,4.89,34.2,10.93,40.09,6.02,5.89,13.94,7.37,23.75,4.42,4.89-1.7,8.36-4.24,10.43-7.63,2.06-3.38,3.39-7.64,3.99-12.8.59-5.15.59-10.84,0-17.08-.61-6.24-1.12-12.83-1.53-19.77-.22-3.7-.7-9.6-1.41-17.69-.72-8.08-1.47-16.75-2.25-26-.79-9.24-1.68-18.25-2.65-27.02-.99-8.76-1.61-15.46-1.89-20.1-.28-4.62,1.84-7.09,6.36-7.37l101.73-6.44c4.07-.26,6.23,1.7,6.48,5.86Z" style="fill: #f4ead6;"/>
  <path d="M983.95,574.64c.25,2.36-.35,4.16-1.82,5.43-1.47,1.27-3.11,1.82-4.91,1.67l-100.88-8.81c-3.16-.28-5.06-2.07-5.69-5.39-.49-5.16-1.53-13.05-3.14-23.67-1.62-10.62-3.38-22.18-5.29-34.68-1.92-12.5-3.82-25.13-5.71-37.86-1.9-12.74-3.63-23.36-5.19-31.88-1.82-10.86-4.25-18.53-7.29-22.99-3.04-4.45-5.91-6.8-8.62-7.04-5.87-.51-8.72,3.67-8.54,12.52-.53,17.18-1.29,31.9-2.31,44.14-1.02,12.25-1.92,23-2.69,32.24l-5.26,63.09c-1.26,4.08-3.68,5.96-7.29,5.65l-91.4-7.98c-4.06-.35-5.9-2.84-5.51-7.47.46-5.55,1.35-13.5,2.67-23.86,1.31-10.36,2.53-20.96,3.67-31.8,1.13-10.84,2.17-20.64,3.13-29.41.95-8.76,1.53-14.29,1.72-16.61l17.15-205.92c1-12.01,2.06-26.12,3.18-42.32,1.11-16.19,2.23-32.28,3.34-48.25,1.1-15.97,2.1-30.65,2.99-44.09.88-13.42,1.6-23.37,2.14-29.84.35-4.16,2.77-6.04,7.29-5.65l100.2,8.75c4.06.35,5.9,2.85,5.51,7.47-.8,4.12-1.75,9.97-2.83,17.56-1.09,7.59-2.21,15.52-3.35,23.8-1.15,8.28-2.16,16.34-3.04,24.18-.89,7.85-1.51,14.08-1.9,18.69-.29,8.82-.67,17.52-1.15,26.09-.49,8.58,1.49,13.52,5.93,14.83,4.92.9,8.75-1.44,11.5-7.03,2.73-5.58,5.22-10.83,7.45-15.76.64-2.27,2.7-7.8,6.15-16.57,3.46-8.78,7.35-18.67,11.68-29.71,4.33-11.03,8.51-21.71,12.56-32.08,4.04-10.35,6.94-17.78,8.68-22.29,1.13-2.69,3.28-3.9,6.44-3.63l94.11,8.22c4.06.35,5.9,2.85,5.52,7.47-1.41,5.93-3.38,13.21-5.91,21.83-2.54,8.63-5.5,18.15-8.86,28.56-3.37,10.42-7.12,21.27-11.24,32.54-4.13,11.28-8.23,22.33-12.31,33.15-4.7,12.63-9.76,24.29-15.19,34.99-5.44,10.7-10.23,20.53-14.39,29.47-4.16,8.96-7.33,17.06-9.53,24.31-2.2,7.26-2.63,13.74-1.28,19.44.75,1.93,1.99,6,3.76,12.2,1.75,6.21,3.72,13.94,5.91,23.21,2.18,9.27,4.51,19.6,6.97,30.99,2.46,11.39,4.55,23.21,6.25,35.46,1.78,11.33,3.56,24.06,5.34,38.18,1.78,14.12,3.34,28.12,4.69,41.96,1.34,13.86,2.56,26.53,3.65,38.03,1.09,11.51,2.06,20.32,2.91,26.44Z" style="fill: #f4ead6;"/>
  <path d="M728.09,11.32c4.98,0,7.02,2.56,6.12,7.65-.91,6.5-2.61,16.59-5.1,30.27-2.49,13.69-5.1,29.34-7.81,46.97-2.72,17.64-5.67,36.53-8.83,56.71-3.17,20.18-6.01,39.9-8.49,59.15-2.5,19.26-4.65,37.23-6.45,53.93-1.82,16.7-2.95,30.39-3.4,41.06,0,3.25-1.81,5.34-5.44,6.26-5.89.47-11.78.93-17.67,1.39-5.89.47-12.46.82-19.71,1.04-7.25.24-15.52.47-24.8.7-9.29.24-20.28.35-32.95.35-4.53,0-6.8-2.32-6.8-6.96,0-10.67-.23-24.7-.68-42.1-.46-17.4-1.02-36.53-1.7-57.41-.68-20.88-1.25-42.45-1.7-64.71-.46-22.27-.68-43.6-.68-64.02V17.58c0-4.18,2.04-6.26,6.11-6.26h139.97ZM698.19,492.15c.45,1.86,0,3.37-1.36,4.52-1.36,1.15-2.95,1.74-4.76,1.74h-98.53c-4.53,0-6.8-2.09-6.8-6.26v-130.12c0-4.18,2.04-6.26,6.12-6.26,11.77,0,21.85-.11,30.24-.35,8.38-.23,15.97-.46,22.76-.69,6.8-.23,13.36-.58,19.71-1.04,6.34-.46,13.59-.92,21.74-1.39,4.52,0,6.79,2.09,6.79,6.26,0,7.43.22,16.94.68,28.53.45,11.6.9,23.66,1.36,36.18.45,12.53.9,24.82,1.36,36.88.45,12.07.68,22.73.68,32.01Z" style="fill: #f4ead6;"/>
</svg>