<?xml version="1.0" encoding="UTF-8"?>
<svg id="b" data-name="Layer 2" xmlns="http://www.w3.org/2000/svg" viewBox="0 0 374.75 500">
  <g id="c" data-name="Layer 1">
    <path d="M327.02,0H111.14c-26.36,0-47.73,21.37-47.73,47.73v338.23c0,26.36,21.37,47.73,47.73,47.73h215.88c26.36,0,47.73-21.37,47.73-47.73V47.73c0-26.36-21.37-47.73-47.73-47.73ZM331.29,274.99c-.11,42.64-35.09,77.34-77.97,77.36l-67.98.04h-.09c-43.12,0-78.31-34.72-78.44-77.4l-.11-40.06c-.08-25.12,11.42-48.06,30.81-62.96l.06-10.16c.29-44.15,36.59-80.3,80.91-80.62,45.18,0,81.7,35.8,82.03,79.8l.09,10.98c19.39,14.92,30.89,37.86,30.81,62.98l-.12,40.04ZM268.12,189.97l-.16-21.44c-.2-26.91-22.94-47.82-49.24-47.64-26.31.19-48.42,21.42-48.59,48.32l-.13,20.75c-16.5,8.01-26.72,24.33-26.66,42.5l.1,34.05c.07,25.42,20.93,46.2,46.35,46.18l58.99-.05c25.1-.02,45.83-20.8,45.91-45.39l.1-34.78c.05-18.17-10.17-34.47-26.66-42.5ZM194.45,185.26v-15.41c.02-13.92,11.5-24.74,24.94-24.55,13.58.19,24.5,11.29,24.29,25.24v14.69s-49.23.02-49.23.02ZM329.85,475.63c-9.19,14.45-24.83,24.37-43.22,24.37H91.26c-50.4,0-91.26-40.86-91.26-91.26V80.34c0-19.54,10.85-36.45,26.81-45.3v365.69c0,41.37,33.54,74.9,74.9,74.9h228.15Z" style="fill: #231f20;"/>
  </g>
</svg>