<?xml version="1.0" encoding="UTF-8"?>
<svg id="b" data-name="Layer 2" xmlns="http://www.w3.org/2000/svg" viewBox="0 0 499.91 441.2">
  <g id="c" data-name="Layer 1">
    <path d="M332.57,136.83l15.46,14.15c4.27,3.91,11.22,3.94,15.53.06l73.72-66.35c6.94-6.25,18.72-1.78,18.73,7.1l.03,84.45c0,5.52,4.92,10,10.99,10h21.88c6.07,0,10.99-4.48,10.99-10V10.01c-.01-5.52-4.93-10-11-10h-182.76c-6.07,0-10.99,4.47-10.99,9.99v19.89c0,5.52,4.92,10,10.99,10l91.7.04c9.82,0,14.71,10.83,7.73,17.11l-72.93,65.63c-4.32,3.89-4.35,10.23-.07,14.16ZM150.43,152.21l15.56-14.06c4.3-3.89,4.33-10.21.07-14.13L93.11,56.97c-6.87-6.31-1.95-17.03,7.81-17.03l92.84-.03c6.07,0,10.99-4.48,10.99-10V10C204.75,4.48,199.83,0,193.75,0H11C4.93.01.01,4.49.01,10.01v166.23c-.01,5.52,4.91,10,10.98,10h21.87c6.07,0,10.99-4.47,10.99-9.99l.04-83.4c0-8.93,11.9-13.38,18.81-7.03l72.16,66.34c4.28,3.93,11.25,3.96,15.56.06ZM167.34,304.36l-15.46-14.15c-4.27-3.91-11.22-3.94-15.53-.06l-73.72,66.35c-6.94,6.25-18.72,1.78-18.73-7.1l-.03-84.45c0-5.52-4.92-10-10.99-10H10.99C4.92,254.96,0,259.44,0,264.96v166.23c.01,5.52,4.93,10,11,10h182.76c6.07,0,10.99-4.47,10.99-9.99v-19.89c0-5.52-4.92-10-10.99-10l-91.7-.04c-9.82,0-14.71-10.83-7.73-17.11l72.93-65.63c4.32-3.89,4.35-10.23.07-14.16ZM349.48,288.99l-15.56,14.06c-4.3,3.89-4.33,10.21-.07,14.13l72.95,67.06c6.87,6.31,1.95,17.03-7.81,17.03l-92.84.03c-6.07,0-10.99,4.48-10.99,10v19.9c0,5.52,4.92,10,10.99,10h182.75c6.07-.01,10.99-4.49,10.99-10.01v-166.23c.01-5.52-4.91-10-10.98-10h-21.87c-6.07,0-10.99,4.47-10.99,9.99l-.04,83.4c0,8.93-11.9,13.38-18.81,7.03l-72.16-66.34c-4.28-3.93-11.25-3.96-15.56-.06Z" style="fill: #231f20;"/>
  </g>
</svg>