<?xml version="1.0" encoding="UTF-8"?>
<svg id="b" data-name="Layer 2" xmlns="http://www.w3.org/2000/svg" viewBox="0 0 500 395.46">
  <g id="c" data-name="Layer 1">
    <path d="M400.62,223.84l-61.5-58.17c-4.29-4.06-4.47-10.83-.4-15.11l14.66-15.42c4.05-4.26,10.79-4.45,15.07-.4l128.21,121.13c4.46,4.21,4.46,11.31,0,15.52l-128.24,121.15c-4.28,4.05-11.03,3.86-15.09-.42l-14.63-15.45c-4.06-4.28-3.87-11.05.42-15.1l61.57-58.18c7.02-6.63,2.33-18.44-7.33-18.44l-164.53-.02c-5.9,0-10.67-4.78-10.68-10.67v-21.25c0-5.9,4.77-10.68,10.67-10.68l164.46-.05c9.66,0,14.35-11.8,7.33-18.44ZM106.71,153.19l164.46-.05c5.9,0,10.68-4.78,10.67-10.68v-21.25c0-5.9-4.79-10.67-10.68-10.67l-164.53-.02c-9.66,0-14.35-11.8-7.33-18.44l61.57-58.18c4.29-4.05,4.48-10.82.42-15.1l-14.63-15.45c-4.05-4.28-10.8-4.47-15.09-.42L3.34,124.07c-4.46,4.21-4.46,11.31,0,15.52l128.21,121.13c4.28,4.04,11.02,3.86,15.07-.4l14.66-15.42c4.07-4.28,3.89-11.06-.4-15.11l-61.5-58.17c-7.01-6.63-2.32-18.43,7.33-18.44Z" style="fill: #231f20;"/>
  </g>
</svg>