<?xml version="1.0" encoding="UTF-8"?>
<svg id="b" data-name="Layer 2" xmlns="http://www.w3.org/2000/svg" viewBox="0 0 500.04 500">
  <g id="c" data-name="Layer 1">
    <path d="M230.87.76c138.41-10.72,258.13,93.57,268.45,230.16,10.4,137.66-92.59,257.79-230.12,268.34C131.97,509.78,11.99,407.34.83,270.11-10.31,133.08,92.11,11.51,230.87.76ZM319.92,117.91c2.01-2.01,2.4-5.89,1.8-7.36s-2.7-3.6-4.62-4.5c-60.95-28.59-132.82-15.29-179.71,31.9-46.82,47.13-59.67,119-30.71,179.8.76,1.6,3.49,3.62,5,3.95,1.51.34,4.93-.49,6.42-1.98l201.81-201.81ZM182.9,393.63c61.23,28.72,132.76,15.23,179.55-31.82,46.83-47.09,59.81-118.75,30.95-179.52-.77-1.62-3.5-3.63-5.01-3.97-1.51-.34-4.91.51-6.4,1.99l-201.65,201.65c-1.48,1.48-2.28,4.9-2,6.42.28,1.52,2.22,4.15,4.56,5.25Z" style="fill: #231f20;"/>
  </g>
</svg>